<svg width="196" height="48" viewBox="0 0 196 48" fill="none" xmlns="http://www.w3.org/2000/svg">
<g clip-path="url(#clip0_47_272)">
<path d="M102.36 2.18762L102.551 2.16516C110.351 1.30985 109.623 5.61069 109.456 11.5323C109.423 12.6989 109.484 14.1221 109.581 15.2866C113.265 13.9725 117.028 13.0387 120.588 11.3571C122.727 10.3468 125.707 8.17537 127.892 7.85259C129.235 7.65435 130.548 8.1032 131.623 8.9105C133.17 10.0726 133.783 11.9619 134.06 13.8022C134.264 15.1524 134.067 16.5267 133.212 17.6237C130.007 21.736 114.535 24.4614 109.438 25.2194L109.463 34.0211C112.813 34.1067 116.345 34.0379 119.712 34.0183C122.604 34.0098 131.81 33.1281 133.867 34.337C134.862 34.9224 135.404 35.9923 135.673 37.0804C136.123 38.9126 136.109 41.4749 135.073 43.1049C134.43 44.12 133.408 44.6886 132.243 44.8992C129.884 45.3288 126.229 45.1126 123.728 45.1126C120.161 45.1238 116.596 45.0887 113.03 45.0059C109.269 44.9175 104.369 45.0508 101.19 42.803C97.426 40.1411 97.8068 35.0895 97.8124 31.032L97.8264 21.6068L97.8082 11.7749C97.7942 9.77747 97.713 7.77972 97.8292 5.78549C97.9734 3.28554 100.261 2.51138 102.36 2.18762Z" fill="#22C55E"/>
<path d="M163.994 5.4392C167.021 5.37433 177.331 4.96493 179.71 5.64166C181.074 6.02902 182.194 6.87141 182.88 8.12223C184.063 10.28 183.97 13.1634 183.311 15.4671C181.082 23.2413 172.889 30.6628 165.988 34.5518C170.457 39.3774 168.375 44.7785 161.941 46.0618C159.028 46.6416 157.342 43.835 155.934 41.6575C152.815 36.8375 149.477 32.8502 145.068 29.1001C141.097 25.1535 146.641 21.3185 150.48 21.4289C153.374 21.512 158.16 24.7534 160.076 26.7892C160.929 26.0057 162.574 24.8151 163.541 24.0152C166.647 21.4461 168.002 19.5075 170.005 16.1712C164.137 16.2533 158.13 16.0618 152.233 16.1417C148.418 16.1032 144.579 16.3051 140.774 16.0766C138.365 15.9318 137.302 14.5991 137.137 12.2612C137.008 10.4449 137.21 6.21574 139.612 5.98815C142.291 5.73445 145.246 5.81898 147.961 5.77475L163.994 5.4392Z" fill="#22C55E"/>
<path d="M72.7185 4.45841L81.6497 4.43034C83.6195 4.42556 85.5096 4.376 87.4702 4.56315C91.8831 4.98435 92.8869 9.53273 92.083 13.2273C90.2167 21.8042 83.0642 29.0258 75.9513 33.6842C77.0554 34.9043 78.4895 37.2532 78.5822 38.8537C79.079 43.5515 71.6489 47.873 68.1579 44.3784C65.3304 41.548 63.1305 37.3866 60.3089 34.3778C58.6246 32.5821 57.2722 31.1935 55.4091 29.5537C54.826 29.0342 54.2257 28.5344 53.8392 27.8956C51.6832 24.1637 56.236 20.5521 59.6393 20.283C61.4362 20.1407 63.1763 21.2106 64.626 22.1604C66.4725 23.3703 68.2986 24.8012 69.9752 26.2417C70.9711 25.1564 72.6334 23.699 73.7306 22.5958C76.2076 20.1051 77.304 17.9688 78.8547 14.8922C73.3335 15.0292 67.5552 14.8028 61.9995 14.8825C58.6334 14.9599 55.4653 14.8904 52.09 14.8315C46.706 14.7377 46.8628 5.65096 50.9772 4.73809C52.5495 4.38919 56.4244 4.49394 58.2223 4.48411L72.7185 4.45841Z" fill="#22C55E"/>
<path d="M36.7709 0.0762572C37.6118 -0.0145812 38.1492 -0.0728438 38.9681 0.193494C41.0878 0.882714 43.6384 2.6495 44.6414 4.68501C45.1272 5.6709 45.4078 6.82764 45.0332 7.85003C43.7638 11.3149 35.1169 17.4122 32.0904 18.992L32.0405 36.2267C32.0396 36.9736 32.0426 38.0112 32.0449 38.7202C32.0628 44.1396 32.9115 46.9757 26.0044 46.5755C23.7255 46.4436 21.8395 47.1315 20.2932 44.6114C20.05 40.1256 20.2786 33.6897 20.2699 29.027C20.2711 27.6666 20.233 26.1938 20.388 24.8515C16.0025 27.0881 9.96736 28.6929 5.24316 30.2008C0.654882 31.6637 -2.06558 23.4513 1.95408 21.7067C12.569 17.1 22.7596 12.2183 31.6182 4.60343C33.3273 3.13514 34.7368 0.969618 36.7709 0.0762572Z" fill="#22C55E"/>
<path d="M186.077 31.7085C190.519 30.9844 194.708 33.9978 195.45 38.4497C196.192 42.9003 193.207 47.1166 188.773 47.8804C184.309 48.6495 180.073 45.6319 179.325 41.1518C178.579 36.6718 181.608 32.4371 186.077 31.7085ZM190.28 39.477C190.069 37.864 188.602 36.7231 186.991 36.9194C185.359 37.1188 184.201 38.6149 184.415 40.2505C184.631 41.886 186.134 43.0317 187.762 42.8003C189.367 42.5728 190.492 41.0902 190.28 39.477Z" fill="#22C55E"/>
</g>
<defs>
<clipPath id="clip0_47_272">
<rect width="195.563" height="47.9999" fill="white"/>
</clipPath>
</defs>
</svg>
