<svg width="81" height="81" viewBox="0 0 81 81" fill="none" xmlns="http://www.w3.org/2000/svg">
<g clip-path="url(#clip0_47_556)">
<path d="M0 40.5C0 18.1325 18.1325 0 40.5 0C62.8675 0 81 18.1325 81 40.5C81 62.8675 62.8675 81 40.5 81C18.1325 81 0 62.8675 0 40.5Z" fill="#22C55E"/>
<path d="M45.4552 15.1194C45.6066 13.9656 45.5089 12.6629 46.7004 11.9714C50.6066 9.69947 64.1369 11.3752 63.4386 17.3938C64.5031 23.3962 66.505 28.5657 68.8976 34.115C80.1329 38.7615 69.8253 43.8128 69.0685 48.0471C67.8282 54.9954 69.5421 65.0657 69.088 72.3215C67.8136 88.5217 65.3771 103.881 65.7433 120.209C66.2267 141.604 65.6066 163.148 65.9875 184.507C66.0314 188.365 38.1408 192.858 38.4582 183.263C36.6173 172.846 33.175 159.996 30.0451 149.258C26.339 150.479 23.7511 151.357 19.8253 151.79C16.4025 158.721 13.1994 164.838 12.0714 172.618C11.2902 176.872 12.1008 183.044 10.509 186.976C8.71207 191.422 0.621254 191.595 -3.2391 191.723C-16.0457 192.147 -17.8036 191.366 -17.8651 178.987C-25.2142 177.257 -25.0404 176.205 -25.1185 169.103C-25.5472 162.246 -30.8202 165.047 -36.8998 163.163C-41.9803 166.932 -45.4398 170.4 -47.1375 176.667C-48.2801 180.476 -49.3905 185.067 -53.9676 186.019C-60.7728 187.435 -67.0238 187.03 -73.1102 183.664C-76.1727 159.608 -71.5467 122.354 -55.8504 103.699C-47.4066 93.6633 -31.3656 82.5515 -20.2215 75.1789C-13.1063 70.4714 -2.44076 66.5369 3.60954 60.4641C6.56852 57.4944 8.9904 48.6106 11.0021 44.4465C12.4426 41.4656 13.5656 39.1609 15.2501 36.1511C13.5656 35.0754 12.1203 34.2131 11.383 32.3738C10.7921 25.5427 17.0031 24.5173 21.2951 25.9675C21.4708 26.0266 26.8517 21.6057 27.9797 20.9382C32.4621 18.2927 42.4816 19.6345 45.4552 15.1194Z" fill="#FAFAFA"/>
<path d="M45.4553 15.1194C45.6067 13.9656 45.5091 12.6629 46.7005 11.9714C50.6067 9.69947 64.137 11.3752 63.4388 17.3938C60.055 19.4705 57.3743 19.8484 53.5657 20.5105C50.0207 18.9099 48.3313 17.5466 45.4553 15.1194Z" fill="#232122"/>
<path d="M48.4925 25.8857C55.7679 26.2808 54.3323 34.6138 49.679 37.7212C41.1829 35.856 43.5071 30.2476 48.4925 25.8857Z" fill="#232122"/>
<path d="M33.0774 53.1299C37.2278 53.354 39.3078 56.5937 43.3703 57.0849C46.0412 57.4082 48.595 54.4184 51.012 55.2944L51.6174 56.8184C49.7278 58.1162 48.0774 59.1694 45.719 59.3745C41.471 59.7441 33.5217 58.3916 33.0774 53.1299Z" fill="#584B48"/>
</g>
<defs>
<clipPath id="clip0_47_556">
<path d="M0 40.5C0 18.1325 18.1325 0 40.5 0C62.8675 0 81 18.1325 81 40.5C81 62.8675 62.8675 81 40.5 81C18.1325 81 0 62.8675 0 40.5Z" fill="white"/>
</clipPath>
</defs>
</svg>
