<svg width="81" height="81" viewBox="0 0 81 81" fill="none" xmlns="http://www.w3.org/2000/svg">
<g clip-path="url(#clip0_47_336)">
<path d="M0 40.5C0 18.1325 18.1325 0 40.5 0C62.8675 0 81 18.1325 81 40.5C81 62.8675 62.8675 81 40.5 81C18.1325 81 0 62.8675 0 40.5Z" fill="#E4E4E7"/>
<path d="M16.5674 27.435C13.234 22.7909 10.2746 19.7997 15.9914 15.0956C19.3856 12.3031 22.9384 15.3531 25.3335 14.9141C36.3568 12.894 40.4827 11.6737 51.6652 15.4437C54.4625 14.3858 57.7937 13.2322 60.61 14.6064C66.0137 17.2422 63.2992 22.9136 61.5922 26.4054L61.7448 26.7617C63.2388 30.1442 65.7976 33.0174 67.8001 35.9612C76.7608 49.2615 89.3833 54.2003 103.423 60.5469C121.504 68.7215 138.719 80.5002 146.065 99.7021C150.96 112.488 150.15 131.378 136.03 137.69C133.767 138.702 131.354 139.336 128.888 139.568C124.422 140 83.4074 140.307 81.4112 139.482C81.3317 139.449 81.2554 139.414 81.1792 139.38C78.7665 139.032 78.9286 134.76 78.8587 132.934C78.7824 134.187 78.7252 135.324 78.7093 136.583C76.3762 136.372 73.5217 136.187 71.2522 135.84C69.4657 136.884 65.2953 139.143 63.5439 139.332C59.9457 139.721 37.5043 140.538 35.4255 139.395L35.114 139.75L34.3533 139.51C33.9121 139.459 32.9191 139.194 32.4394 139.079C31.6886 139.649 31.8943 139.463 30.7093 139.446L28.4442 139.361C27.6578 138.429 27.9187 137.862 28.0039 136.666C25.5707 136.964 12.5413 137.013 10.3824 136.431L9.96056 136.51C8.56099 137.01 7.13855 136.842 6.07147 135.831C4.99422 130.517 16.4012 128.395 19.6409 125.712C27.5268 119.183 26.9823 108.001 26.8205 98.7005C26.7735 96.0011 26.2919 92.413 26.7058 89.8631C26.1361 88.5449 25.3733 87.1713 25.4972 85.7934C24.3529 83.7399 22.8497 78.5529 22.1453 76.2023C17.3465 60.1819 15.3408 44.1305 16.5674 27.435Z" fill="#FEFEFE"/>
<path d="M34.6917 37.5643C37.6507 37.5001 42.6889 36.8085 43.9031 40.161C43.6075 43.1465 41.3602 44.2183 39.0048 45.1697L38.7855 45.6916C39.2432 46.4787 39.4212 46.6437 39.4689 47.5194C38.207 49.0382 35.6291 48.1701 34.048 47.6589C33.5435 47.3767 31.5559 45.9615 31.4275 45.5171C33.0702 46.3115 33.9933 46.788 35.734 47.2791C36.6462 47.1125 36.8083 46.8767 37.5585 46.2686C37.5903 46.0674 37.6221 45.8665 37.657 45.6653C35.6894 44.2577 31.8216 42.0314 32.8337 38.9016C33.5117 37.9855 33.6014 37.8571 34.6917 37.5643Z" fill="#171717"/>
<path d="M37.2137 47.5189C37.2614 46.6431 37.4394 46.4782 37.8972 45.6911L39.1241 46.2681C39.8743 46.8761 40.0364 47.112 40.9487 47.2786C42.6893 46.7875 43.6124 46.311 45.2551 45.5166C45.1267 45.961 43.1391 47.3761 42.6346 47.6584C41.0536 48.1695 38.4757 49.0377 37.2137 47.5189Z" fill="#171717"/>
<path d="M60.2923 30.022C61.7958 31.8783 61.2904 38.5603 60.518 40.7189L59.8059 40.1706C60.1905 36.9913 60.2255 33.2293 60.2923 30.022Z" fill="#171717"/>
<path d="M45.6006 28.2156C46.1409 27.9253 46.8021 27.9543 47.317 28.2915C47.832 28.6288 48.1212 29.22 48.0736 29.8342C48.0259 30.448 47.6445 30.9864 47.085 31.2388C46.2554 31.6107 45.2827 31.2592 44.8822 30.4442C44.4817 29.6291 44.7995 28.6437 45.6006 28.2156Z" fill="#171717"/>
<path d="M29.5121 28.419C30.2013 27.8284 31.2359 27.8955 31.8427 28.5703C32.4498 29.2455 32.4072 30.2814 31.747 30.9041C31.3058 31.3205 30.6736 31.4652 30.0951 31.2817C29.5166 31.0987 29.083 30.6164 28.9619 30.0217C28.8408 29.4273 29.0515 28.8138 29.5121 28.419Z" fill="#171717"/>
</g>
<defs>
<clipPath id="clip0_47_336">
<path d="M0 40.5C0 18.1325 18.1325 0 40.5 0C62.8675 0 81 18.1325 81 40.5C81 62.8675 62.8675 81 40.5 81C18.1325 81 0 62.8675 0 40.5Z" fill="white"/>
</clipPath>
</defs>
</svg>
