<svg width="320" height="320" viewBox="0 0 320 320" fill="none" xmlns="http://www.w3.org/2000/svg">
<g clip-path="url(#clip0_41_542)">
<path d="M35.6541 228.695C35.8205 223.552 36.7604 218.464 38.4426 213.601C42.0185 203.532 51.6038 190.246 61.6986 185.998C87.266 175.242 110.857 187.063 129.821 204.774C136.373 210.893 139.853 215.868 145.524 222.294C154.646 232.629 166.327 244.023 178.207 250.966C180.657 252.399 186.068 254.259 188.866 255.254C193.702 251.919 196.411 252.538 198.526 258.079C202.929 259.855 208.833 262.178 212.175 265.581C218.024 271.536 214.941 274.276 222.703 278.309C230.321 279.856 229.683 283.074 226.641 289.145C223.383 298.833 219.108 299.244 209.339 299.269C202.979 299.286 197.455 299.022 191.206 297.524L184.222 296.056L180.284 295.43L175.079 295.066C151.496 294.838 128.082 289.671 105.423 283.104C100.083 281.557 96.0716 277.639 90.5623 275.543C84.4048 273.2 73.6633 271.481 67.1347 269.166C50.1182 270.98 35.2819 266.574 19.146 261.407C15.33 260.186 10.7616 260.047 7.20698 258.045C2.93882 252.394 13.2961 242.357 16.2523 237.569C16.7127 236.823 26.0214 230.049 27.5222 228.877C27.6006 228.815 34.5225 228.733 35.6541 228.695Z" fill="white"/>
<path d="M180.271 283.83C178.982 281.447 177.519 279.702 178.541 277.022C179.977 276.497 179.355 276.574 181.035 276.948C182.577 278.934 190.955 292.037 191.045 293.953C190.408 295.059 190.067 295.408 190.148 296.648L191.206 297.524L184.222 296.056L180.284 295.43L175.079 295.065C175.213 289.052 175.202 287.233 180.271 283.83Z" fill="white"/>
<path d="M180.284 295.43C179.446 292.578 178.617 290.784 180.061 288.062C183.502 286.366 187.757 292.525 184.222 296.056L180.284 295.43Z" fill="white"/>
<path d="M222.703 278.309C230.321 279.855 229.683 283.074 226.642 289.145C223.111 288.452 220.462 282.988 220.412 279.658C221.298 278.414 220.831 278.821 222.703 278.309Z" fill="#232122"/>
<path d="M145.458 263.359L146.683 263.86L146.919 264.75L146.212 265.554C134.264 269.637 108.564 261.44 96.8444 256.839C83.6039 259.651 90.1999 265.46 87.5621 270.9C80.712 268.135 87.656 253.379 96.0038 254.467C102.201 255.275 106.567 257.824 112.421 259.584C123.819 263.012 133.705 263.88 145.458 263.359Z" fill="#584B48"/>
<path d="M195.148 275.249C205.471 277.044 206.496 287.682 196.871 291.05C193.175 290.653 190.319 289.009 189.011 285.328C188.337 283.432 188.456 281.344 189.342 279.537C190.631 276.901 192.541 276.112 195.148 275.249Z" fill="white"/>
<path d="M195.595 278.518C199.033 281.428 201.095 283.604 197.316 287.268C192.641 285.138 190.007 281.937 195.595 278.518Z" fill="white"/>
<path d="M54.5255 218.613C63.1801 220.996 65.1394 230.96 54.5907 234.543C50.9347 233.687 48.0663 231.888 47.0646 227.996C46.5925 226.151 46.879 224.194 47.8603 222.562C49.3413 220.096 51.8951 219.256 54.5255 218.613Z" fill="white"/>
<path d="M52.9838 222.035C57.0374 224.435 59.1865 226.478 56.0904 230.919C51.2642 229.277 48.5397 226.262 52.9838 222.035Z" fill="white"/>
<path d="M79.6639 201.713L80.5025 202.458C80.7493 204.444 79.6664 208.182 79.1749 210.282C81.9849 211.039 86.9863 211.782 88.073 214.672L87.2347 215.326C82.6736 216.096 81.5726 215.304 77.3187 213.53C78.9532 215.937 80.5478 217.658 79.0135 220.633L77.9854 220.85C76.423 220.334 75.9318 219.08 75.0858 217.636C73.1409 214.332 67.2218 206.673 66.7114 203.367C67.4974 201.942 67.0031 202.338 68.5504 201.881C71.4949 202.814 74.4059 208.562 76.1593 211.416C76.713 207.257 76.1977 204.3 79.6639 201.713Z" fill="white"/>
<path d="M67.1182 209.908C68.4877 211.252 68.3068 210.702 68.5292 212.187C66.8397 214.261 65.4143 216.679 64.5866 219.229C65.3919 224.86 71.8206 218.857 74.5556 220.663C74.6678 221.932 74.5201 222.137 74.1037 223.381C71.2925 225.154 68.9345 226.319 65.6034 225.152C63.6707 224.491 62.1053 223.047 61.29 221.175C58.981 215.913 62.3677 211.848 67.1182 209.908Z" fill="white"/>
<path d="M86.8272 249.952L87.9248 250.803C89.6385 257.113 76.6126 264.773 71.7926 267.099L70.8799 265.895C70.7273 264.479 71.8484 264.009 73.3544 263.145C80.9012 258.814 82.3393 257.058 86.8272 249.952Z" fill="#584B48"/>
<path d="M36.4575 231.56C38.6425 232.563 37.977 231.911 39.001 234.209C40.6089 235.26 41.6872 234.985 43.7952 235.108C44.9164 235.93 44.5865 235.467 44.9701 236.916L44.2455 237.549C41.7219 238.192 38.4783 237.763 35.8176 237.573C33.0628 237.328 27.1237 237.408 26.2786 234.547L26.8119 234.119C29.322 233.646 33.0943 234.4 35.7843 234.706C35.9674 233.523 36.1562 232.719 36.4575 231.56Z" fill="#584B48"/>
<path d="M209.366 273.12C210.545 273.833 210.352 273.469 210.664 274.513L209.748 275.529C207.411 276.424 206.996 276.405 204.486 276.098C203.506 274.535 203.39 274.904 203.558 273.402C205.256 272.756 205.938 273.817 208.94 273.209L209.366 273.12Z" fill="#232122"/>
<path d="M131.713 147.909C125.65 141.343 119.787 135.923 116.847 127.224C116.351 125.757 111.28 124.768 111.883 120.376C112.239 117.78 113.113 117.665 115.107 116.033C116.957 110.917 116.775 104.984 119.216 99.9472C122.721 91.2316 127.632 83.4288 131.497 74.8553C139.245 57.6721 145.013 43.4184 160.062 31.1965C172.636 20.9852 179.55 20.6344 195.496 19.3328C208.931 18.2492 222.437 18.3995 235.845 19.7813C247.065 21.007 257.248 22.7944 268.118 25.7979C291.462 32.2485 306.172 52.0256 306.634 76.1002C306.738 81.5473 306.554 87.1241 306.901 92.5673C307.387 101.603 310.128 110.541 309.898 119.584C309.877 120.4 307.994 123.052 307.402 123.706C302.872 128.644 295.203 132.265 288.611 133.297C280.545 134.438 279.988 124.964 277.978 119.417C275.779 118.239 273.899 117.208 271.576 116.25C260.859 121.512 255.289 122.848 243.294 123.408C243.388 132.398 241.963 147.648 235.59 154.685C232.367 158.244 217.944 165.512 213.45 161.557C210.911 156.984 215.362 149.042 214.473 147.839C211.182 152.88 205.44 156.651 199.604 157.686C189.243 159.524 194.639 150.702 194.168 147.378C192.942 138.725 188.673 129.852 184.607 122.266C181.851 123.162 179.107 124.094 176.376 125.064C173.286 133.009 169.881 137.282 165.3 144.257C159.826 152.591 157.604 159.856 146.853 162.353C143.309 164.165 136.962 165.372 133.977 162.043C132.165 160.021 132.572 158.033 132.726 155.554C132.436 153.171 132.161 150.224 131.713 147.909Z" fill="white"/>
<path d="M132.725 155.553C137.788 153.474 147.959 155.687 146.853 162.352C143.309 164.164 136.962 165.371 133.977 162.042C132.164 160.02 132.572 158.032 132.725 155.553Z" fill="#232122"/>
<path d="M198.67 110.276C201.153 109.68 200.915 110.696 202.787 112.008C206.32 114.483 217.554 131.812 214.26 135.136L213.357 134.959C212.211 134.074 209.751 126.661 208.622 124.207C206.134 123.867 203.564 123.769 201.053 123.628C197.532 123.486 191.017 122.758 188.056 120.846L188.126 120.183C190.557 118.996 202.958 120.979 206.996 121.186C204.862 118.362 199.429 113.131 198.67 110.276Z" fill="#584B48"/>
<path d="M254.127 82.3129L255.436 82.1036C257.3 83.1998 257.874 87.4986 258.161 89.6238C259.174 97.1285 261.114 101.745 265.958 107.694C267.47 109.55 269.192 110.62 269.92 112.942C260.27 114.913 254.72 89.0122 254.127 82.3129Z" fill="#584B48"/>
<path d="M151.999 104.273C155.366 102.548 158.806 102.868 161.737 105.481C165.111 108.49 161.325 113.701 157.321 113.661L156.728 112.872L157.257 112.076C158.447 110.9 159.816 109.723 159.854 108.069C156.468 101.812 152.557 110.307 150.54 110.711C149.818 107.727 150.456 106.895 151.999 104.273Z" fill="#584B48"/>
<path d="M236.38 102.006C237.938 101.892 237.342 101.757 238.671 102.447C240.928 106.016 242.596 115.02 242.529 119.111L241.287 119.075C239.301 117.553 237.176 105.505 236.38 102.006Z" fill="#584B48"/>
<path d="M150.018 128.963C151.417 127.548 153.683 127.488 155.155 128.828C156.626 130.168 156.778 132.43 155.499 133.954C154.624 134.997 153.248 135.477 151.915 135.205C150.581 134.932 149.503 133.951 149.108 132.649C148.712 131.346 149.061 129.932 150.018 128.963Z" fill="#232122"/>
<path d="M124.264 137.339C124.8 137.124 125.341 136.922 125.887 136.733C130.188 135.257 131.793 137.004 132.716 141.002C127.6 143.994 126.49 142.22 124.264 137.339Z" fill="#232122"/>
<path d="M18.4719 50.3399C16.4373 48.1839 11.2691 44.802 12.015 41.7821C14.1027 39.9063 15.866 42.6159 17.4696 44.019C18.7937 45.1779 20.083 46.4775 21.4011 47.6696C21.496 45.4954 20.7471 41.0382 23.1096 40.2795C27.0007 40.8816 25.5425 48.4437 25.5257 51.4653C27.2529 53.6261 32.6537 58.5651 34.8598 60.4287C35.6326 57.9121 37.8608 49.1906 37.7892 46.7607C36.6049 44.4511 32.2209 40.0786 33.0593 37.5871C35.4401 35.6809 38.0732 39.934 39.5703 41.6467C39.9025 40.3754 40.2446 37.6275 40.4926 36.19C40.7687 34.589 41.0691 33.377 43.0147 33.2738C44.3146 33.6867 44.4796 34.3316 44.7482 35.5436L44.5921 36.787C44.5508 37.8932 43.9436 40.7957 43.7915 42.3516C45.7491 41.1908 48.0035 39.3629 49.7609 41.7257C50.1774 44.5571 44.0166 46.8811 41.7564 48.101C41.6911 48.2785 41.6293 48.4576 41.5709 48.6378C41.0342 50.3128 38.2757 60.6124 38.8296 61.6935C40.7714 61.9092 50.3884 58.8562 52.5006 57.9838C53.0968 56.3189 55.2545 49.5818 56.8715 49.2183C61.4648 48.1858 58.4253 53.9993 57.6364 55.7791C60.4924 55.1838 65.1842 52.4841 67.4703 54.9214C67.7041 55.9519 67.7639 55.6024 67.4135 56.4607C65.8027 57.8262 61.4176 58.7049 59.0201 59.569C60.8456 60.9975 64.3052 62.4634 64.351 64.9139C61.938 68.5831 55.8766 61.623 53.5868 61.9282C49.9161 62.4179 44.0997 64.3108 40.6419 65.7333C40.9915 66.1692 41.3517 66.5967 41.7223 67.0151C42.7017 68.1119 48.3767 73.9312 49.6277 74.192C52.0084 74.6885 58.4593 72.0888 60.5969 74.4808C60.8096 75.5114 60.7576 75.2108 60.4133 76.282C59.3397 77.5505 55.807 78.0915 54.0418 78.4941C55.7758 80.483 61.2471 84.3897 59.98 87.1184C57.8883 88.6154 52.6883 82.7379 51.1748 81.3057C51.1217 82.4596 51.0466 83.6128 50.9496 84.7644C50.7969 86.3842 50.3865 88.1693 48.3702 88.0016C46.027 86.2558 47.3209 80.2806 46.591 76.9467C43.7322 74.1425 40.8302 71.3823 37.8861 68.6675C36.9635 71.2178 34.4166 80.3129 34.3779 82.8324C35.8107 84.7834 39.5729 88.8952 39.0208 91.2722C38.4106 92.0329 38.7103 91.8042 37.7538 92.155C35.805 91.9786 34.0134 89.4363 32.6772 87.9288C31.9393 90.1662 31.8119 94.9829 30.4566 96.2061C29.4731 96.7141 28.0522 96.5946 27.6541 95.4991C26.6704 92.7927 28.3302 88.537 29.1813 85.9613C26.8214 86.6237 24.2317 88.8584 22.2668 86.8437C21.5861 83.9027 28.4075 81.7011 30.6613 80.6652C31.7031 78.0508 34.0308 68.9089 34.5537 66.1361C31.9776 66.5277 23.1279 69.3784 20.7274 70.4345C19.7381 72.162 15.6028 82.8873 13.0163 77.6133C12.952 75.603 14.4697 73.7193 15.5705 71.9728C12.5977 72.408 6.76678 75.4861 4.83879 72.0718C4.9007 69.4331 11.4776 68.9404 13.7169 68.4861C12.2901 67.3783 6.92502 64.5924 9.94992 62.4952C12.4407 61.9669 16.5326 65.2735 19.107 66.4982C21.4581 66.3994 29.1489 63.9232 31.8978 63.0973C29.1656 60.2028 25.6438 57.0306 22.719 54.324C21.4146 54.1609 8.65012 56.0256 12.1739 51.271C12.9541 50.2184 16.9677 50.3691 18.4719 50.3399Z" fill="#FDFDFD"/>
<path fill-rule="evenodd" clip-rule="evenodd" d="M282.549 218.713C285.094 218.366 285.389 222.969 285.865 224.913C286.838 223.823 287.505 221.616 289.067 221.988C291.08 224.071 287.876 226.268 287.107 228.241C286.768 229.11 286.649 230.582 287.646 231.003C289.118 230.016 290.479 227.281 292.336 227.363C294.785 228.198 294.517 233.334 296.377 233.496C296.968 233.217 297.33 232.594 297.723 232.051C297.992 230.324 296.77 224.627 298.948 224.4C300.613 225.021 300.336 228.066 300.445 229.682C301.438 228.435 303.119 225.88 304.96 226.379L305.155 226.854C305.065 228.821 303.613 230.139 302.343 231.502C303.561 231.567 305.681 231.373 306.092 232.7C305.735 234.315 304.616 234.405 303.178 234.332C301.87 234.265 300.59 234.23 299.28 234.221C298.754 234.604 298.113 234.947 297.965 235.548C299.123 237.168 309.414 235.246 301.801 242.273C301.088 242.931 300.326 243.635 299.608 244.298C300.842 244.727 301.303 244.833 302.595 245.035C303.832 243.896 306.398 241.203 308.255 241.797C309.127 243.096 306.333 245.382 305.472 246.122C306.781 246.496 310.619 247.356 310.547 249.172C309.441 250.166 306.739 249.214 305.495 248.867C306.158 250.741 306.659 251.42 306.11 253.293L305.545 253.528C303.483 252.132 301.944 246.13 298.865 247.357C297.819 248.92 302.605 256.757 295.061 253.39C294.245 253.026 293.228 252.69 292.375 252.377C292.465 252.848 292.812 254.659 293.063 254.979C294.347 256.616 298.944 256.991 299.141 259.468C298.85 260.071 299.019 259.906 298.493 260.217C296.785 260.238 295.556 259.478 293.992 258.759C294.415 260.924 295.407 262.687 294.441 264.737C293.721 264.948 293.675 264.921 293.068 264.682C292.09 263.743 291.695 260.818 291.293 259.28C290.343 260.363 289.065 263.177 287.302 262.392C286.268 260.105 291.721 254.91 289.704 253.154C288.072 253.849 284.308 262.238 282.803 253.912C282.643 253.023 282.428 252.113 282.237 251.228C281.184 252.162 280.457 252.959 279.725 254.155C279.672 255.744 280.564 258.519 279.421 259.639C277.279 259.907 277.23 257.046 276.923 255.423C275.872 256.491 273.944 258.8 272.318 258.305C271.165 256.818 273.797 254.464 274.737 253.471C273.241 252.984 270.726 252.6 270.724 250.79C271.772 248.941 275.643 250.941 277.436 251.416C278.427 250.661 278.748 250.331 279.578 249.431C275.887 247.769 270.631 247.542 276.225 242.801C276.928 242.206 277.654 241.473 278.298 240.805C273.033 238.797 272.274 243.076 269.231 242.574C266.548 241.143 270.475 239.373 271.681 238.691C270.013 238.24 266.547 237.509 266.437 235.355C267.355 233.809 271.3 235.813 272.49 236.35C271.963 234.893 270.102 231.525 272.287 230.953C274.319 231.478 275.102 236.019 276.608 237.301C277.092 237.713 278.379 237.944 279.016 238.072C278.2 231.147 276.522 228.393 284.746 231.954C284.616 231.341 284.329 229.757 284.057 229.295C283.078 227.633 278.328 226.791 278.375 224.435C278.563 223.896 278.638 223.818 279.093 223.469C280.197 223.232 282.046 224.478 283.068 225.045C282.649 222.846 281.621 220.757 282.549 218.713ZM287.588 244.913C286.599 246.114 285.222 247.696 284.348 248.935C284.522 249.946 285.044 253.394 285.564 254.045C286.617 252.761 288.354 250.799 288.917 249.329C288.695 248.305 288.235 245.462 287.588 244.913ZM290.572 244.316C290.767 245.777 291.092 247.219 291.544 248.622C292.393 249.105 295.973 251.219 296.602 251.264C296.302 249.682 295.944 247.396 295.568 245.888C294.703 245.559 291.474 244.466 290.572 244.316ZM281.454 241.638L276.924 245.656L281.823 247.045C283.029 245.94 284.767 243.97 285.768 242.648C284.666 242.221 282.557 241.259 281.454 241.638ZM294.576 238.105C293.269 239.224 291.986 240.294 290.778 241.524C291.932 241.908 296.101 243.538 297.011 243.032L300.873 238.973C299.529 238.706 295.698 237.802 294.576 238.105ZM280.888 233.294C280.992 235.079 281.238 236.415 281.575 238.177C282.777 238.828 285.29 239.901 286.607 240.205C286.583 238.992 285.852 236.368 285.503 235.098C284.429 234.553 282.065 233.277 280.888 233.294ZM291.278 230.914C290.57 231.734 288.798 233.71 288.234 234.584C288.426 235.725 288.758 238.387 289.497 239.217C289.671 239.19 289.834 239.187 289.962 239.076C291.017 238.069 292.584 236.653 293.345 235.43C293.045 234.5 292.146 231.357 291.494 230.924L291.278 230.914Z" fill="white"/>
<path d="M233.144 197C234.597 197.327 234.301 198.856 234.302 200.03C234.305 200.877 234.279 201.722 234.281 202.571C235.305 201.761 236.553 199.728 237.859 200.269C238.673 201.855 234.615 204.392 234.387 205.575C234.164 206.724 234.251 209.289 234.254 210.604C235.03 209.699 236.386 207.005 237.541 207.033C239.051 208.296 236.013 211.397 235.083 212.47C236.448 211.642 239.573 209.605 240.699 208.636C241.15 207.433 241.272 204.477 242.395 203.903C242.804 203.912 242.655 203.865 242.998 204.117C243.398 204.948 242.93 206.664 242.785 207.705C243.89 207.078 245.87 205.077 247.066 205.703C247.294 206.17 247.266 205.983 247.234 206.47C246.836 207.285 244.865 208.316 243.938 208.988C244.962 209.49 246.762 209.696 247.059 210.86C246.525 212.149 243.038 210.527 242.016 210.188C240.773 210.688 237.896 212.465 236.718 213.216C237.589 213.272 240.995 212.935 241.341 213.613C242.294 215.472 238.195 214.974 237.285 214.924C238.455 215.693 240.361 216.885 241.603 217.482C242.784 217.222 245.775 215.868 246.629 216.708C246.887 218.08 244.489 218.333 243.412 218.603C244.457 219.33 247.569 220.348 247.499 221.722C247.233 222.186 247.377 222.056 246.937 222.299C246.062 222.315 243.808 220.852 242.8 220.375C242.98 221.212 243.578 223.161 243.072 223.837C242.614 224.053 242.803 224.027 242.311 223.953C241.178 223.187 241.099 220.501 240.528 219.031C239.91 218.441 236.629 216.349 235.723 215.77C236.434 216.732 238.104 219.007 237.403 220.161C236.971 220.479 237.155 220.428 236.661 220.419C235.96 220.084 234.885 218.021 234.305 217.191C234.218 218.588 234.148 220.974 234.344 222.276C234.551 223.648 238.483 225.057 238.09 226.852C237.845 227.151 237.791 227.217 237.414 227.301C236.618 227.227 235.015 225.716 234.302 225.136C234.24 226.589 234.531 228.726 233.879 229.949C231.897 230.496 232.452 226.485 232.464 225.219C231.58 225.95 230.633 227.095 229.55 227.348C229.063 227.215 229.208 227.319 228.913 226.968C228.746 225.54 231.653 223.765 232.429 222.438L232.454 222.397C232.543 221.178 232.501 219.159 232.511 217.889C231.879 218.629 230.738 220.235 229.657 220.179C228.498 219.342 230.618 216.92 231.222 216.137C229.799 216.929 227.811 217.796 226.619 218.865C225.717 219.673 225.943 224.164 224.341 224.192C223.064 223.542 223.863 221.459 224.123 220.347C222.847 220.946 221.726 222.037 220.285 222.414C219.782 222.312 219.962 222.396 219.568 222.02C219.28 220.642 222.311 219.283 223.391 218.667C222.29 218.216 219.917 217.977 219.733 216.723C219.847 216.512 219.98 216.22 220.233 216.166C221.247 215.95 224.364 217.145 225.392 217.471C226.545 216.973 229.324 215.351 230.539 214.662C228.997 214.839 227.128 215.264 225.824 214.36C225.821 214.225 225.784 213.998 225.859 213.928C226.83 213.023 229.151 213.158 230.454 213.139C229.472 212.475 226.527 210.836 225.456 210.439C224.265 210.739 220.874 212.216 219.94 211.314C219.462 209.92 222.314 209.563 223.432 209.09C222.323 208.391 220.711 207.71 219.723 206.798C219.45 206.546 219.496 206.232 219.515 205.923C220.289 204.79 222.973 206.853 223.9 207.409C223.828 206.011 223.598 205.14 224.119 203.785L224.584 203.752C225.488 204.71 225.819 207.254 226.162 208.611C226.966 209.4 230.351 211.28 231.535 211.967C230.801 210.978 228.458 208.604 229.4 207.478C230.663 206.834 231.778 209.478 232.386 210.441C232.543 209.097 232.496 206.599 232.345 205.28C231.485 204.12 228.501 202.138 228.933 200.686C229.235 200.338 229.087 200.423 229.525 200.326C230.502 200.548 231.561 201.877 232.44 202.627C232.562 200.907 232.092 198.273 233.144 197Z" fill="#FDFDFD"/>
</g>
<defs>
<clipPath id="clip0_41_542">
<path d="M0 24C0 10.7452 10.7452 0 24 0H296C309.255 0 320 10.7452 320 24V296C320 309.255 309.255 320 296 320H24C10.7452 320 0 309.255 0 296V24Z" fill="white"/>
</clipPath>
</defs>
</svg>
